<?xml version="1.0" ?><!DOCTYPE svg  PUBLIC '-//W3C//DTD SVG 1.1//EN'  'http://www.w3.org/Graphics/SVG/1.1/DTD/svg11.dtd'><svg enable-background="new 0 0 128 128" height="100%" id="Layer_1" version="1.1" viewBox="0 0 128 128" width="100%" xml:space="preserve" xmlns="http://www.w3.org/2000/svg" xmlns:xlink="http://www.w3.org/1999/xlink"><path d="M128,112c0,8.8-7.2,16-16,16H16c-8.8,0-16-7.2-16-16V16C0,7.2,7.2,0,16,0h96c8.8,0,16,7.2,16,16V112z" fill="#00C80F"/><g><path d="M103.378,95.667C109.877,91.049,114,84.17,114,76.489c0-13.907-13.512-25.182-30.181-25.182   c-16.668,0-30.181,11.274-30.181,25.182c0,13.906,13.513,25.18,30.181,25.18c3.61,0,7.073-0.529,10.281-1.498   c0.566-0.171,1.178-0.104,1.689,0.191l6.546,3.791c1.453,0.84,2.292,0.2,1.867-1.423l-1.422-5.42   C102.62,96.692,102.857,96.037,103.378,95.667z M73.76,72.513c-2.263,0-4.098-1.834-4.098-4.096c0-2.263,1.835-4.097,4.098-4.097   c2.262,0,4.097,1.834,4.097,4.097C77.856,70.679,76.021,72.513,73.76,72.513z M93.759,72.513c-2.263,0-4.097-1.834-4.097-4.096   c0-2.263,1.834-4.097,4.097-4.097s4.098,1.834,4.098,4.097C97.856,70.679,96.021,72.513,93.759,72.513z" fill="#FFFFFF"/><path d="M84.181,48.898c0.642,0,1.277,0.015,1.91,0.045C83.37,34.514,68.367,23.477,50.265,23.477   C30.236,23.477,14,36.989,14,53.658c0,9.163,4.906,17.372,12.652,22.907c0.729,0.521,1.064,1.436,0.832,2.302l-1.705,6.36   c-0.515,1.92,0.469,2.671,2.185,1.669l7.766-4.534c0.699-0.409,1.537-0.513,2.313-0.28c3.818,1.137,7.934,1.758,12.222,1.758   c0.654,0,1.305-0.016,1.95-0.044c-0.8-2.362-1.227-4.854-1.227-7.427C50.988,61.197,65.85,48.898,84.181,48.898z M62.313,39.139   c2.661,0,4.818,2.158,4.818,4.819s-2.157,4.819-4.818,4.819c-2.662,0-4.819-2.158-4.819-4.819S59.651,39.139,62.313,39.139z    M38.096,48.778c-2.662,0-4.819-2.158-4.819-4.819s2.158-4.819,4.819-4.819s4.819,2.158,4.819,4.819S40.758,48.778,38.096,48.778z" fill="#FFFFFF"/></g></svg>