<?xml version="1.0" standalone="no"?><!DOCTYPE svg PUBLIC "-//W3C//DTD SVG 1.1//EN" "http://www.w3.org/Graphics/SVG/1.1/DTD/svg11.dtd"><svg t="1536309501702" class="icon" style="" viewBox="0 0 1024 1024" version="1.1" xmlns="http://www.w3.org/2000/svg" p-id="1459" xmlns:xlink="http://www.w3.org/1999/xlink" width="200" height="200"><defs><style type="text/css"></style></defs><path d="M740 259.7l24.3 24.3L280 768.3h-24.3V744L740 259.7m0-67.7c-13.8 0-27.7 5.3-38.3 15.8L192 717.6v60.3c0 29.9 24.2 54.1 54.1 54.1h60.3l509.8-509.8c21.1-21.1 21.1-55.4 0-76.5l-37.9-37.9C767.7 197.3 753.9 192 740 192zM864 896H160c-17.7 0-32-14.3-32-32s14.3-32 32-32h704c17.7 0 32 14.3 32 32s-14.3 32-32 32z" p-id="1460" fill="#ffffff"></path></svg>